# xmcd
#
# Track frame offsets:
#       150
#       9741
#       22521
#       37778
#       52200
#       66164
#       77900
#       91411
#       110406
#       125539
#       139775
#       153846
#       166801
#       181821
#       196423
#       207362
#       223542
#       238615
#       253907
#       271025
#       286693
#       299221
#       309603
#       321421
#       338711
#
# Disc length: 4714 seconds
#
# Revision: 1
# Processed by: cddbd v1.5.2PL0 Copyright (c) Steve Scherf et al.
# Submitted via: FreeDbEdit v0.1
#
DISCID=6a126819
DTITLE=George Strait - 50 Number Ones [CD2]
DYEAR=2004
DGENRE=Country
TTITLE0=Heartland
TTITLE1=Easy Come, Easy Go
TTITLE2=I'd Like to Have That One Back
TTITLE3=The Man in Love With You
TTITLE4=The Big One
TTITLE5=You Can't Make a Heart Love Somebody
TTITLE6=Lead On
TTITLE7=Check Yes or No
TTITLE8=I Know She Still Loves Me
TTITLE9=Blue Clear Sky
TTITLE10=Carried Away
TTITLE11=I Can Still Make Cheyenne
TTITLE12=One Night at a Time
TTITLE13=Carrying Your Love With Me
TTITLE14=Today My World Slipped Away
TTITLE15=Round About Way
TTITLE16=I Just Want to Dance With You
TTITLE17=True
TTITLE18=We Really Shouldn't Be Doing This
TTITLE19=Write This Down
TTITLE20=The Best Day
TTITLE21=Go On
TTITLE22=Run
TTITLE23=Living and Living Well
TTITLE24=She'll Leave You With a Smile
EXTD=
EXTT0=
EXTT1=
EXTT2=
EXTT3=
EXTT4=
EXTT5=
EXTT6=
EXTT7=
EXTT8=
EXTT9=
EXTT10=
EXTT11=
EXTT12=
EXTT13=
EXTT14=
EXTT15=
EXTT16=
EXTT17=
EXTT18=
EXTT19=
EXTT20=
EXTT21=
EXTT22=
EXTT23=
EXTT24=
PLAYORDER=
